<?xml version="1.0" encoding="iso-8859-1"?>
<!-- Generator: Adobe Illustrator 16.0.0, SVG Export Plug-In . SVG Version: 6.00 Build 0)  -->
<!DOCTYPE svg PUBLIC "-//W3C//DTD SVG 1.1//EN" "http://www.w3.org/Graphics/SVG/1.1/DTD/svg11.dtd">
<svg version="1.1" id="Capa_1" xmlns="http://www.w3.org/2000/svg" xmlns:xlink="http://www.w3.org/1999/xlink" x="0px" y="0px"
	 width="34.67px" height="34.669px" viewBox="0 0 34.67 34.669" style="enable-background:new 0 0 34.67 34.669;"
	 xml:space="preserve" fill="#f8f8f8">
<g>
	<path d="M16.156,18.513c1.173,1.172,1.173,3.071,0,4.243l-5.911,5.912h2.187c1.657,0,3,1.343,3,3c0,1.656-1.343,3-3,3H0V22.238
		c0-1.655,1.343-3,3-3c1.656,0,3,1.345,3,3v2.189l5.915-5.915C13.087,17.341,14.984,17.341,16.156,18.513z M22.238,0.001
		c-1.657,0-3,1.343-3,3s1.343,3,3,3h2.188l-5.912,5.913c-1.173,1.172-1.173,3.071,0,4.243c0.586,0.586,1.354,0.879,2.12,0.879
		s1.535-0.293,2.121-0.878l5.915-5.915v2.188c0,1.657,1.344,3,3,3s3-1.343,3-3V0.001H22.238L22.238,0.001z"/>
</g>
<g>
</g>
<g>
</g>
<g>
</g>
<g>
</g>
<g>
</g>
<g>
</g>
<g>
</g>
<g>
</g>
<g>
</g>
<g>
</g>
<g>
</g>
<g>
</g>
<g>
</g>
<g>
</g>
<g>
</g>
</svg>
